<mxfile host="Electron" modified="2024-03-25T14:05:37.957Z" agent="Mozilla/5.0 (Windows NT 10.0; Win64; x64) AppleWebKit/537.36 (KHTML, like Gecko) draw.io/24.1.0 Chrome/120.0.6099.109 Electron/28.1.0 Safari/537.36" etag="YhCPlD1xlwy020T06fFd" version="24.1.0" type="device">
  <diagram name="第 1 页" id="iNmgTrFjIFc8AbQdmyIh">
    <mxGraphModel dx="2389" dy="909" grid="1" gridSize="10" guides="1" tooltips="1" connect="1" arrows="0" fold="1" page="1" pageScale="1" pageWidth="827" pageHeight="1169" math="0" shadow="0">
      <root>
        <mxCell id="0" />
        <mxCell id="1" parent="0" />
        <mxCell id="OfrsV7cFusIjpzHpeM0C-1" value="" style="rounded=0;whiteSpace=wrap;html=1;dashed=1;" vertex="1" parent="1">
          <mxGeometry x="90" y="300" width="680" height="370" as="geometry" />
        </mxCell>
        <mxCell id="OfrsV7cFusIjpzHpeM0C-2" value="cdev" style="rounded=0;whiteSpace=wrap;html=1;" vertex="1" parent="1">
          <mxGeometry x="180" y="380" width="120" height="40" as="geometry" />
        </mxCell>
        <mxCell id="OfrsV7cFusIjpzHpeM0C-3" value="dev_t" style="rounded=0;whiteSpace=wrap;html=1;" vertex="1" parent="1">
          <mxGeometry x="130" y="450" width="60" height="30" as="geometry" />
        </mxCell>
        <mxCell id="OfrsV7cFusIjpzHpeM0C-4" value="file_oprations" style="rounded=0;whiteSpace=wrap;html=1;" vertex="1" parent="1">
          <mxGeometry x="260" y="446" width="120" height="40" as="geometry" />
        </mxCell>
        <mxCell id="OfrsV7cFusIjpzHpeM0C-5" value="write()" style="rounded=0;whiteSpace=wrap;html=1;" vertex="1" parent="1">
          <mxGeometry x="320" y="560" width="120" height="40" as="geometry" />
        </mxCell>
        <mxCell id="OfrsV7cFusIjpzHpeM0C-6" value="read()" style="rounded=0;whiteSpace=wrap;html=1;" vertex="1" parent="1">
          <mxGeometry x="120" y="560" width="120" height="40" as="geometry" />
        </mxCell>
        <mxCell id="OfrsV7cFusIjpzHpeM0C-7" value="ioctl()" style="rounded=0;whiteSpace=wrap;html=1;" vertex="1" parent="1">
          <mxGeometry x="490" y="560" width="120" height="40" as="geometry" />
        </mxCell>
        <mxCell id="OfrsV7cFusIjpzHpeM0C-8" value="&lt;b&gt;&lt;font style=&quot;font-size: 19px;&quot;&gt;...&lt;/font&gt;&lt;/b&gt;" style="rounded=0;whiteSpace=wrap;html=1;" vertex="1" parent="1">
          <mxGeometry x="670" y="560" width="60" height="40" as="geometry" />
        </mxCell>
        <mxCell id="OfrsV7cFusIjpzHpeM0C-9" value="模块卸载函数" style="rounded=0;whiteSpace=wrap;html=1;" vertex="1" parent="1">
          <mxGeometry x="600" y="445" width="120" height="40" as="geometry" />
        </mxCell>
        <mxCell id="OfrsV7cFusIjpzHpeM0C-10" value="模块加载函数" style="rounded=0;whiteSpace=wrap;html=1;" vertex="1" parent="1">
          <mxGeometry x="600" y="340" width="120" height="40" as="geometry" />
        </mxCell>
        <mxCell id="OfrsV7cFusIjpzHpeM0C-11" value="用户空间" style="rounded=0;whiteSpace=wrap;html=1;" vertex="1" parent="1">
          <mxGeometry x="827" y="290" width="120" height="40" as="geometry" />
        </mxCell>
        <mxCell id="OfrsV7cFusIjpzHpeM0C-12" value="Linux系统调用" style="rounded=0;whiteSpace=wrap;html=1;" vertex="1" parent="1">
          <mxGeometry x="827" y="410" width="120" height="40" as="geometry" />
        </mxCell>
        <mxCell id="OfrsV7cFusIjpzHpeM0C-13" value="字符设备" style="rounded=0;whiteSpace=wrap;html=1;" vertex="1" parent="1">
          <mxGeometry x="-70" y="380" width="120" height="40" as="geometry" />
        </mxCell>
        <mxCell id="OfrsV7cFusIjpzHpeM0C-16" value="" style="endArrow=classic;startArrow=classic;html=1;rounded=0;entryX=0;entryY=0.75;entryDx=0;entryDy=0;exitX=1;exitY=0.488;exitDx=0;exitDy=0;exitPerimeter=0;" edge="1" parent="1" source="OfrsV7cFusIjpzHpeM0C-13">
          <mxGeometry width="50" height="50" relative="1" as="geometry">
            <mxPoint x="60" y="399.5" as="sourcePoint" />
            <mxPoint x="180" y="399.5" as="targetPoint" />
            <Array as="points">
              <mxPoint x="170" y="399.5" />
            </Array>
          </mxGeometry>
        </mxCell>
        <mxCell id="OfrsV7cFusIjpzHpeM0C-17" value="对应" style="edgeLabel;html=1;align=center;verticalAlign=middle;resizable=0;points=[];" vertex="1" connectable="0" parent="OfrsV7cFusIjpzHpeM0C-16">
          <mxGeometry x="0.0185" y="1" relative="1" as="geometry">
            <mxPoint as="offset" />
          </mxGeometry>
        </mxCell>
        <mxCell id="OfrsV7cFusIjpzHpeM0C-18" value="" style="endArrow=classic;html=1;rounded=0;entryX=0.64;entryY=-0.01;entryDx=0;entryDy=0;entryPerimeter=0;exitX=0.496;exitY=1;exitDx=0;exitDy=0;exitPerimeter=0;" edge="1" parent="1" source="OfrsV7cFusIjpzHpeM0C-11">
          <mxGeometry width="50" height="50" relative="1" as="geometry">
            <mxPoint x="886.5000000000002" y="337.19999999999993" as="sourcePoint" />
            <mxPoint x="886.5000000000002" y="409.9999999999999" as="targetPoint" />
          </mxGeometry>
        </mxCell>
        <mxCell id="OfrsV7cFusIjpzHpeM0C-22" value="调用" style="edgeLabel;html=1;align=center;verticalAlign=middle;resizable=0;points=[];" vertex="1" connectable="0" parent="OfrsV7cFusIjpzHpeM0C-18">
          <mxGeometry x="-0.125" y="2" relative="1" as="geometry">
            <mxPoint as="offset" />
          </mxGeometry>
        </mxCell>
        <mxCell id="OfrsV7cFusIjpzHpeM0C-19" value="" style="endArrow=classic;html=1;rounded=0;entryX=1;entryY=0.5;entryDx=0;entryDy=0;exitX=0.496;exitY=1;exitDx=0;exitDy=0;exitPerimeter=0;" edge="1" parent="1" target="OfrsV7cFusIjpzHpeM0C-8">
          <mxGeometry width="50" height="50" relative="1" as="geometry">
            <mxPoint x="887" y="450" as="sourcePoint" />
            <mxPoint x="886.5000000000002" y="529.9999999999999" as="targetPoint" />
          </mxGeometry>
        </mxCell>
        <mxCell id="OfrsV7cFusIjpzHpeM0C-21" value="间接调用" style="edgeLabel;html=1;align=center;verticalAlign=middle;resizable=0;points=[];" vertex="1" connectable="0" parent="OfrsV7cFusIjpzHpeM0C-19">
          <mxGeometry x="-0.0053" relative="1" as="geometry">
            <mxPoint y="1" as="offset" />
          </mxGeometry>
        </mxCell>
        <mxCell id="OfrsV7cFusIjpzHpeM0C-23" value="" style="endArrow=classic;html=1;rounded=0;exitX=0;exitY=0.5;exitDx=0;exitDy=0;entryX=1;entryY=0.5;entryDx=0;entryDy=0;" edge="1" parent="1" source="OfrsV7cFusIjpzHpeM0C-10" target="OfrsV7cFusIjpzHpeM0C-2">
          <mxGeometry width="50" height="50" relative="1" as="geometry">
            <mxPoint x="390" y="490" as="sourcePoint" />
            <mxPoint x="440" y="440" as="targetPoint" />
          </mxGeometry>
        </mxCell>
        <mxCell id="OfrsV7cFusIjpzHpeM0C-24" value="初始化/添加" style="edgeLabel;html=1;align=center;verticalAlign=middle;resizable=0;points=[];" vertex="1" connectable="0" parent="OfrsV7cFusIjpzHpeM0C-23">
          <mxGeometry x="-0.0052" y="3" relative="1" as="geometry">
            <mxPoint as="offset" />
          </mxGeometry>
        </mxCell>
        <mxCell id="OfrsV7cFusIjpzHpeM0C-25" value="" style="endArrow=classic;html=1;rounded=0;exitX=0.496;exitY=1;exitDx=0;exitDy=0;exitPerimeter=0;" edge="1" parent="1">
          <mxGeometry width="50" height="50" relative="1" as="geometry">
            <mxPoint x="628.5" y="380" as="sourcePoint" />
            <mxPoint x="520" y="450" as="targetPoint" />
          </mxGeometry>
        </mxCell>
        <mxCell id="OfrsV7cFusIjpzHpeM0C-29" value="调用" style="edgeLabel;html=1;align=center;verticalAlign=middle;resizable=0;points=[];" vertex="1" connectable="0" parent="OfrsV7cFusIjpzHpeM0C-25">
          <mxGeometry x="-0.0447" y="4" relative="1" as="geometry">
            <mxPoint as="offset" />
          </mxGeometry>
        </mxCell>
        <mxCell id="OfrsV7cFusIjpzHpeM0C-30" value="" style="endArrow=classic;html=1;rounded=0;entryX=1;entryY=0.75;entryDx=0;entryDy=0;exitX=0;exitY=0.5;exitDx=0;exitDy=0;" edge="1" parent="1" source="OfrsV7cFusIjpzHpeM0C-9" target="OfrsV7cFusIjpzHpeM0C-2">
          <mxGeometry width="50" height="50" relative="1" as="geometry">
            <mxPoint x="600" y="450" as="sourcePoint" />
            <mxPoint x="443" y="580" as="targetPoint" />
          </mxGeometry>
        </mxCell>
        <mxCell id="OfrsV7cFusIjpzHpeM0C-33" value="删除" style="edgeLabel;html=1;align=center;verticalAlign=middle;resizable=0;points=[];" vertex="1" connectable="0" parent="OfrsV7cFusIjpzHpeM0C-30">
          <mxGeometry x="-0.1498" y="2" relative="1" as="geometry">
            <mxPoint as="offset" />
          </mxGeometry>
        </mxCell>
        <mxCell id="OfrsV7cFusIjpzHpeM0C-34" value="" style="endArrow=none;html=1;rounded=0;exitX=0.5;exitY=0;exitDx=0;exitDy=0;entryX=0.892;entryY=0.99;entryDx=0;entryDy=0;entryPerimeter=0;" edge="1" parent="1" source="OfrsV7cFusIjpzHpeM0C-7" target="OfrsV7cFusIjpzHpeM0C-4">
          <mxGeometry width="50" height="50" relative="1" as="geometry">
            <mxPoint x="390" y="490" as="sourcePoint" />
            <mxPoint x="440" y="440" as="targetPoint" />
          </mxGeometry>
        </mxCell>
        <mxCell id="OfrsV7cFusIjpzHpeM0C-35" value="" style="endArrow=none;html=1;rounded=0;exitX=0.5;exitY=0;exitDx=0;exitDy=0;" edge="1" parent="1" source="OfrsV7cFusIjpzHpeM0C-3">
          <mxGeometry width="50" height="50" relative="1" as="geometry">
            <mxPoint x="170" y="470" as="sourcePoint" />
            <mxPoint x="220" y="420" as="targetPoint" />
          </mxGeometry>
        </mxCell>
        <mxCell id="OfrsV7cFusIjpzHpeM0C-36" value="" style="endArrow=none;html=1;rounded=0;exitX=0.5;exitY=0;exitDx=0;exitDy=0;" edge="1" parent="1" source="OfrsV7cFusIjpzHpeM0C-4">
          <mxGeometry width="50" height="50" relative="1" as="geometry">
            <mxPoint x="320" y="450" as="sourcePoint" />
            <mxPoint x="240" y="420" as="targetPoint" />
          </mxGeometry>
        </mxCell>
        <mxCell id="OfrsV7cFusIjpzHpeM0C-37" value="" style="endArrow=none;html=1;rounded=0;exitX=0.5;exitY=0;exitDx=0;exitDy=0;entryX=0.432;entryY=1.03;entryDx=0;entryDy=0;entryPerimeter=0;" edge="1" parent="1" source="OfrsV7cFusIjpzHpeM0C-6" target="OfrsV7cFusIjpzHpeM0C-4">
          <mxGeometry width="50" height="50" relative="1" as="geometry">
            <mxPoint x="240" y="520" as="sourcePoint" />
            <mxPoint x="300" y="490" as="targetPoint" />
          </mxGeometry>
        </mxCell>
        <mxCell id="OfrsV7cFusIjpzHpeM0C-38" value="" style="endArrow=none;html=1;rounded=0;exitX=0.565;exitY=0.99;exitDx=0;exitDy=0;entryX=0.598;entryY=-0.04;entryDx=0;entryDy=0;entryPerimeter=0;exitPerimeter=0;" edge="1" parent="1" source="OfrsV7cFusIjpzHpeM0C-4" target="OfrsV7cFusIjpzHpeM0C-5">
          <mxGeometry width="50" height="50" relative="1" as="geometry">
            <mxPoint x="310" y="540" as="sourcePoint" />
            <mxPoint x="370" y="510" as="targetPoint" />
          </mxGeometry>
        </mxCell>
        <mxCell id="OfrsV7cFusIjpzHpeM0C-39" value="字符设备驱动" style="rounded=0;whiteSpace=wrap;html=1;strokeColor=none;" vertex="1" parent="1">
          <mxGeometry x="640" y="620" width="120" height="40" as="geometry" />
        </mxCell>
        <mxCell id="OfrsV7cFusIjpzHpeM0C-41" value="" style="curved=1;endArrow=none;html=1;rounded=0;strokeColor=default;startArrow=none;startFill=0;endFill=0;" edge="1" parent="1">
          <mxGeometry width="50" height="50" relative="1" as="geometry">
            <mxPoint x="120" y="530" as="sourcePoint" />
            <mxPoint x="120" y="530" as="targetPoint" />
            <Array as="points">
              <mxPoint x="300" y="480" />
              <mxPoint x="430" y="500" />
              <mxPoint x="380" y="340" />
              <mxPoint x="110" y="380" />
            </Array>
          </mxGeometry>
        </mxCell>
        <mxCell id="OfrsV7cFusIjpzHpeM0C-42" value="" style="curved=1;endArrow=none;html=1;rounded=0;strokeColor=default;startArrow=none;startFill=0;endFill=0;" edge="1" parent="1">
          <mxGeometry width="50" height="50" relative="1" as="geometry">
            <mxPoint x="110" y="610" as="sourcePoint" />
            <mxPoint x="110" y="610" as="targetPoint" />
            <Array as="points">
              <mxPoint x="230" y="640" />
              <mxPoint x="380" y="620" />
              <mxPoint x="550" y="620" />
              <mxPoint x="700" y="620" />
              <mxPoint x="790" y="580" />
              <mxPoint x="650" y="520" />
              <mxPoint x="410" y="530" />
              <mxPoint x="270" y="550" />
              <mxPoint x="90" y="540" />
            </Array>
          </mxGeometry>
        </mxCell>
      </root>
    </mxGraphModel>
  </diagram>
</mxfile>
